PathFileType	4	(X/Y/Z)	C:/Users/beibeiliu/ov580/test_trc/User3\sequence.18_training_dense_right.trc
DataRate	CameraRate	NumFrames	NumMarkers	Units	OrigDataRate	OrigDataStartFrame	OrigNumFrames
120	120	12	19	mm	120	1	72
Frame#	Time	ThumbCMC			ThumbMCP			ThumbIP			ThumbTip			IndexMCP			IndexPIP			IndexTip			MiddleMCP			MiddlePIP			MiddleTip			RingMCP			RingPIP			RingTip			PinkyMCP			PinkyPIP			PinkyTip			BackHand1			BackHand2			BackHand3	
		X0	Y0	Z0	X1	Y1	Z1	X2	Y2	Z2	X3	Y3	Z3	X4	Y4	Z4	X5	Y5	Z5	X6	Y6	Z6	X7	Y7	Z7	X8	Y8	Z8	X9	Y9	Z9	X10	Y10	Z10	X11	Y11	Z11	X12	Y12	Z12	X13	Y13	Z13	X14	Y14	Z14	X15	Y15	Z15	X16	Y16	Z16	X17	Y17	Z17	X18	Y18	Z18	
0	0	133.505	23.9098	39.3137	109.719	19.7285	14.9153	98.6204	13.6358	-13.1583	93.8863	6.32861	-34.2302	146.588	36.0217	-38.6199	140.34	28.4486	-67.8195	133.06	21.8908	-88.2485	174.146	34.3077	-43.8964	168.572	29.262	-71.926	168.193	16.5546	-102.432	189.351	26.8181	-36.4996	190.844	23.9837	-63.0867	193.827	14.9115	-90.0899	207.189	16.1203	-20.0971	216.699	13.6604	-41.6736	224.775	7.83284	-61.5009	190.99	36.2096	14.8156	192.137	39.2356	45.9245	159.982	44.7893	30.5296	
1	0.00833333	130.617	25.1735	34.3295	112.91	19.4753	15.8446	99.8506	14.6454	-14.8474	90.2883	6.82487	-32.8342	145.219	36.0837	-38.6805	136.669	29.8509	-67.6977	134.484	17.3232	-90.9042	168.894	35.5508	-43.2493	165.555	28.2844	-75.9464	164.744	15.6253	-104.189	185.518	28.6026	-39.1073	192.988	23.5948	-60.6319	189.568	14.8262	-89.9611	204.942	16.2897	-20.4859	214.666	13.5014	-44.2501	216.922	6.55087	-66.7334	189.677	36.4329	14.7888	191.332	38.2525	45.4008	158.709	46.5167	27.5825	
2	0.0166667	129.004	24.3758	39.7769	112.875	19.1936	13.4214	97.9206	14.765	-14.0771	93.4271	7.74927	-34.2198	145.058	35.9884	-38.9912	135.539	30.05	-63.7283	134.585	17.0845	-87.4369	168.045	35.186	-48.1892	164.03	27.9271	-75.198	163.118	12.7004	-104.589	187.611	28.0226	-37.7601	187.823	24.1505	-60.6807	188.35	12.5382	-88.3589	204.53	17.9744	-22.1079	212.562	12.2667	-42.5534	214.855	5.74486	-63.8955	190.278	36.7322	14.1365	194.107	38.1474	43.2143	160.366	46.2485	29.7267	
3	0.025	128.243	24.8592	37.3307	110.565	19.4097	16.138	99.4071	15.3075	-15.3814	92.1269	7.67193	-35.5573	143.656	37.6364	-36.4773	136.136	27.7495	-66.9284	136.184	13.8402	-87.4986	172.279	35.8011	-45.232	167.545	26.1245	-75.5177	164.086	7.86993	-100.346	186.264	30.3422	-38.5779	188.571	22.9967	-64.7325	184.943	8.00794	-87.4987	204.143	18.2646	-20.5578	210.372	12.9906	-41.2482	211.699	0.308893	-67.6742	188.255	39.4462	15.3624	192.415	35.8663	46.9923	156.899	46.4076	27.3901	
4	0.0333333	128.59	26.0789	37.3302	113.816	19.9861	15.5962	101.357	16.9531	-13.7785	96.3718	9.88301	-36.5199	147.177	39.447	-38.4453	138.311	30.9249	-63.7394	138.011	10.2105	-83.2693	168.722	39.6198	-39.9949	165.142	25.8622	-73.6437	159.221	2.82344	-93.788	186.58	30.7866	-32.0649	185.462	21.8655	-64.1988	181.713	-0.745673	-83.8466	205.716	17.9555	-17.2968	208.686	11.8783	-46.2484	204.234	-6.68666	-64.7056	189.811	38.7059	20.4632	196.598	36.8266	48.9989	163.215	45.3687	33.3795	
5	0.0416667	131.888	27.1875	38.1512	119.485	22.0148	16.1176	107.165	19.3099	-8.97483	102.055	14.6845	-32.9654	147.117	42.507	-34.4701	144.924	28.3577	-63.177	132.778	2.14659	-75.9821	172.386	40.8678	-38.3255	167.503	25.5742	-68.8236	155.673	-6.42389	-78.4695	186.819	32.9676	-33.9375	188.53	19.2767	-60.0616	176.096	-7.54837	-68.5627	207.325	19.553	-20.1822	205.204	11.8171	-42.9769	195.011	-16.0297	-57.9191	196.027	38.4931	19.5612	196.069	37.1238	48.0743	165.398	47.4805	31.9802	
6	0.05	136.327	28.0995	39.9179	118.987	26.2202	17.6166	106.674	25.9818	-11.9476	103.142	20.0369	-34.2747	151.327	44.1136	-33.5655	141.698	27.0411	-61.2018	137.81	-3.56632	-61.3799	170.744	41.6049	-38.937	163.587	19.7482	-64.5833	152.866	-15.8224	-54.6007	191.41	30.8665	-34.0896	186.71	10.6863	-56.29	173.058	-17.4986	-48.7812	204.407	19.37	-17.7613	201.805	2.66018	-42.9241	184.111	-23.1397	-40.7113	194.986	41.3479	23.368	195.879	37.7147	51.2601	165.44	49.1047	33.9715	
7	0.0583333	135.537	28.5044	43.6359	120.71	28.0135	16.2536	110.574	27.6672	-12.5717	108.677	23.325	-38.0973	150.752	45.0949	-34.7394	143.667	19.698	-57.2483	133.712	-7.72442	-42.0894	171.951	36.2648	-41.0407	160.681	9.70742	-57.8724	154.58	-17.0624	-27.0483	190.472	25.1214	-35.3911	182.744	-0.42436	-49.4376	166.273	-18.273	-28.9276	204.03	17.4155	-18.2798	196.279	-0.273105	-39.5438	179.854	-25.7322	-24.9205	195.793	43.4832	18.7105	197.639	37.888	52.9503	164.567	50.893	37.0694	
8	0.0666667	138.83	28.6617	38.1049	121.055	27.7159	15.1594	114.432	26.8851	-12.6871	112.888	21.7513	-38.3948	151.893	41.3916	-35.952	140.412	16.1535	-53.4969	135.309	-4.73372	-30.7818	171.933	32.6957	-40.0112	158.592	1.27361	-49.2664	152.951	-10.1199	-17.2515	186.75	23.8906	-31.962	177.171	-3.75625	-43.4484	166.06	-14.9802	-10.5684	203.265	13.8151	-22.002	188.925	-7.46923	-34.4311	180.782	-23.7199	-11.1195	200.408	41.3803	19.4249	200.924	35.721	49.3231	168.175	48.1997	37.2993	
9	0.075	136.136	27.9967	42.0379	121.511	26.6423	12.7356	115.393	26.5457	-15.2492	119.006	21.6418	-42.4834	153.437	39.5681	-36.0209	138.488	15.7807	-49.972	136.504	-0.333408	-18.4055	167.286	30.2895	-41.8163	156.621	-1.62898	-43.5308	153.136	-5.52821	-7.71425	186.163	20.4446	-31.6951	173.784	-7.41172	-37.426	165.88	-10.4501	-3.7903	203.549	10.1966	-23.2773	187.049	-11.9654	-29.661	176.299	-18.268	-1.94253	194.895	40.3109	21.2275	200.286	34.6395	47.9145	170.234	48.7354	38.1011	
10	0.0833333	139.576	28.5006	37.7362	121.526	29.3451	9.06333	115.429	27.8438	-19.9633	124.271	22.5768	-45.1	151.974	42.5271	-33.9049	138.406	12.3404	-46.7947	140.256	1.60019	-17.5268	169.579	28.9282	-40.7799	159.991	-0.95909	-43.9753	157.686	-1.30227	-4.79997	186.123	17.5629	-34.7318	174.615	-9.17014	-33.7059	168.297	-6.76958	-0.12725	203.214	9.27487	-23.9394	186.133	-11.902	-26.4954	178.584	-12.4885	5.85236	195.702	41.7662	21.8746	199.522	36.617	51.3737	168.555	47.2758	37.1758	
11	0.0916667	139.102	28.0092	38.5179	128.655	30.515	8.97001	121.283	33.761	-25.1691	127.233	29.944	-50.3319	152.145	46.6376	-37.9706	143.809	17.514	-50.1657	142.574	9.7058	-17.5319	169.743	36.4125	-39.912	160.846	2.93145	-44.2191	157.725	4.0642	-4.96759	187.639	23.3145	-36.0561	178.39	-4.69555	-34.2179	170.802	0.677712	-0.334537	199.308	15.5161	-27.8254	187.104	-9.54874	-25.1196	184.639	-7.50106	5.12993	199.221	46.6234	15.4074	199.748	39.0793	47.9724	165.757	52.0672	31.877	
